<svg width="270" height="44" viewBox="-2 -2 274 48" xmlns="http://www.w3.org/2000/svg">
<title>Pale pink washi tape with swirly flowing lines</title>
<defs>
<path id="dk" d="M7,0 L0,7 L7,15 L0,22 L7,29 L0,37 L7,44 L263,44 L270,37 L263,29 L270,22 L263,15 L270,7 L263,0 Z"/>
<clipPath id="dkc"><use href="#dk"/></clipPath>
</defs>
<g clip-path="url(#dkc)">
<rect width="270" height="44" fill="#FAD3D8"/>
<path d="M-10,15 C40,-8 80,45 130,15 C180,-12 220,45 280,15" stroke="#fff" stroke-width="1.3" fill="none" opacity="0.5"/>
<path d="M-10,30 C40,50 80,5 130,30 C180,55 220,8 280,30" stroke="#fff" stroke-width="1.2" fill="none" opacity="0.4"/>
</g>
<use href="#dk" fill="none" stroke="rgba(0,0,0,0.08)" stroke-width="1"/>
</svg>
