<svg width="270" height="44" viewBox="-2 -2 274 48" xmlns="http://www.w3.org/2000/svg">
<title>Mint washi tape with wavy lines and dots</title>
<defs>
<path id="dk" d="M7,0 L0,7 L7,15 L0,22 L7,29 L0,37 L7,44 L263,44 L270,37 L263,29 L270,22 L263,15 L270,7 L263,0 Z"/>
<clipPath id="dkc"><use href="#dk"/></clipPath>
</defs>
<g clip-path="url(#dkc)">
<rect width="270" height="44" fill="#A6E3C4"/>
<path d="M-10,10 Q5,4 20,10 T50,10 T80,10 T110,10 T140,10 T170,10 T200,10 T230,10 T260,10 T290,10" stroke="#fff" stroke-width="1" fill="none" opacity="0.5"/>
<path d="M-10,22 Q5,16 20,22 T50,22 T80,22 T110,22 T140,22 T170,22 T200,22 T230,22 T260,22 T290,22" stroke="#fff" stroke-width="1" fill="none" opacity="0.5"/>
<path d="M-10,34 Q5,28 20,34 T50,34 T80,34 T110,34 T140,34 T170,34 T200,34 T230,34 T260,34 T290,34" stroke="#fff" stroke-width="1" fill="none" opacity="0.5"/>
<circle cx="20" cy="16" r="1.3" fill="#fff" opacity="0.55"/><circle cx="55" cy="30" r="1.3" fill="#fff" opacity="0.55"/><circle cx="90" cy="14" r="1.3" fill="#fff" opacity="0.55"/><circle cx="125" cy="28" r="1.3" fill="#fff" opacity="0.55"/><circle cx="160" cy="16" r="1.3" fill="#fff" opacity="0.55"/><circle cx="195" cy="30" r="1.3" fill="#fff" opacity="0.55"/><circle cx="230" cy="14" r="1.3" fill="#fff" opacity="0.55"/>
</g>
<use href="#dk" fill="none" stroke="rgba(0,0,0,0.08)" stroke-width="1"/>
</svg>
